<svg viewBox="0 0 1200 120" xmlns="http://www.w3.org/2000/svg">
  <defs>
    <linearGradient id="brushGradient" x1="0%" y1="0%" x2="100%" y2="0%">
      <stop offset="0%" stop-color="#1a3d32" />
      <stop offset="30%" stop-color="#2d5a4a" />
      <stop offset="70%" stop-color="#3d7a64" />
      <stop offset="100%" stop-color="#2d5a4a" />
    </linearGradient>
    <filter id="brushTexture" x="-20%" y="-20%" width="140%" height="140%">
      <feTurbulence type="fractalNoise" baseFrequency="0.04" numOctaves="3" result="noise" />
      <feDisplacementMap in="SourceGraphic" in2="noise" scale="3" xChannelSelector="R" yChannelSelector="G" />
    </filter>
  </defs>
  <path d="M-10 65 Q 50 45, 100 58 T 200 52 T 300 60 T 400 48 T 500 55 T 600 45 T 700 58 T 800 50 T 900 62 T 1000 48 T 1100 55 T 1210 50" fill="none" stroke="url(#brushGradient)" stroke-width="28" stroke-linecap="round" stroke-linejoin="round" filter="url(#brushTexture)" opacity="0.95"/>
  <path d="M-5 60 Q 55 42, 105 55 T 205 49 T 305 57 T 405 45 T 505 52 T 605 42 T 705 55 T 805 47 T 905 59 T 1005 45 T 1105 52 T 1215 47" fill="none" stroke="#234f3e" stroke-width="14" stroke-linecap="round" opacity="0.5"/>
  <path d="M10 55 Q 60 40, 110 52 T 210 46 T 310 54 T 410 42 T 510 49 T 610 39 T 710 52 T 810 44 T 910 56 T 1010 42 T 1110 49 T 1210 44" fill="none" stroke="#4a9a7a" stroke-width="6" stroke-linecap="round" opacity="0.3"/>
  <g fill="#2d5a4a" opacity="0.7">
    <ellipse cx="45" cy="18" rx="8" ry="5" /><ellipse cx="120" cy="12" rx="5" ry="3" /><ellipse cx="185" cy="22" rx="6" ry="4" /><ellipse cx="260" cy="8" rx="7" ry="4" /><ellipse cx="340" cy="15" rx="5" ry="3" /><ellipse cx="420" cy="5" rx="9" ry="5" /><ellipse cx="510" cy="18" rx="6" ry="4" /><ellipse cx="590" cy="10" rx="5" ry="3" /><ellipse cx="680" cy="20" rx="7" ry="4" /><ellipse cx="760" cy="8" rx="6" ry="4" /><ellipse cx="850" cy="15" rx="8" ry="5" /><ellipse cx="940" cy="5" rx="6" ry="4" /><ellipse cx="1030" cy="18" rx="5" ry="3" /><ellipse cx="1110" cy="12" rx="7" ry="4" /><ellipse cx="1180" cy="8" rx="5" ry="3" />
  </g>
  <g fill="#2d5a4a" opacity="0.6">
    <ellipse cx="80" cy="98" rx="6" ry="4" /><ellipse cx="180" cy="105" rx="5" ry="3" /><ellipse cx="300" cy="95" rx="7" ry="4" /><ellipse cx="420" cy="102" rx="6" ry="4" /><ellipse cx="540" cy="96" rx="5" ry="3" /><ellipse cx="660" cy="108" rx="8" ry="5" /><ellipse cx="780" cy="98" rx="6" ry="4" /><ellipse cx="900" cy="105" rx="5" ry="3" /><ellipse cx="1020" cy="95" rx="7" ry="4" /><ellipse cx="1140" cy="100" rx="6" ry="4" />
  </g>
  <g fill="#1a3d32" opacity="0.6">
    <circle cx="90" cy="45" r="2" /><circle cx="190" cy="38" r="1.5" /><circle cx="290" cy="48" r="2" /><circle cx="390" cy="35" r="1.8" /><circle cx="490" cy="42" r="2.2" /><circle cx="590" cy="38" r="1.5" /><circle cx="690" cy="45" r="2" /><circle cx="790" cy="35" r="1.8" /><circle cx="890" cy="48" r="2" /><circle cx="990" cy="40" r="1.5" /><circle cx="1090" cy="45" r="2" />
  </g>
  <ellipse cx="1190" cy="52" rx="18" ry="10" fill="#0f2e24" opacity="0.6"/><ellipse cx="1195" cy="50" rx="10" ry="6" fill="#1a3d32" opacity="0.4"/>
</svg>